<?xml version="1.0" encoding="iso-8859-1"?>
<!-- Generator: Adobe Illustrator 19.0.0, SVG Export Plug-In . SVG Version: 6.00 Build 0)  -->
<svg version="1.1" id="Layer_1" xmlns="http://www.w3.org/2000/svg" xmlns:xlink="http://www.w3.org/1999/xlink" x="0px" y="0px"
	 viewBox="0 0 512 512" style="enable-background:new 0 0 512 512;" xml:space="preserve">
<circle style="fill:#FC6F58;" cx="256" cy="256" r="256"/>
<path style="fill:#F1543F;" d="M510.581,283.026L369.78,142.222L239.051,287.318l-96.827,82.46l140.803,140.803
	C402.823,498.01,498.01,402.822,510.581,283.026z"/>
<rect x="142.222" y="142.222" style="fill:#324A5E;" width="227.556" height="227.556"/>
<rect x="256" y="142.222" style="fill:#2B3B4E;" width="113.778" height="227.556"/>
<rect x="159.461" y="189.768" style="fill:#E6F3FF;" width="193.077" height="160.892"/>
<rect x="256" y="189.768" style="fill:#CFDBE6;" width="96.539" height="160.892"/>
<rect x="221.522" y="234.02" style="fill:#31BAFD;" width="113.778" height="24.135"/>
<rect x="256" y="234.02" style="fill:#2B9ED8;" width="79.3" height="24.135"/>
<rect x="221.522" y="282.29" style="fill:#31BAFD;" width="113.778" height="24.135"/>
<rect id="SVGCleanerId_0" x="256" y="282.29" style="fill:#2B9ED8;" width="79.3" height="24.135"/>
<g>
	<rect id="SVGCleanerId_0_1_" x="256" y="282.29" style="fill:#2B9ED8;" width="79.3" height="24.135"/>
</g>
<g>
	<rect x="176.7" y="234.02" style="fill:#31BAFD;" width="25.285" height="24.135"/>
	<rect x="176.7" y="282.29" style="fill:#31BAFD;" width="25.285" height="24.135"/>
</g>
<rect x="322.442" y="197.907" transform="matrix(-0.7071 -0.7071 0.7071 -0.7071 367.8982 752.8117)" style="fill:#F9B54C;" width="34.84" height="204.608"/>
<rect x="335.953" y="203.513" transform="matrix(0.7071 0.7071 -0.7071 0.7071 317.428 -154.7054)" style="fill:#F4A200;" width="19.014" height="204.608"/>
<polygon style="fill:#FED8B2;" points="279.847,384.879 241.028,396.824 255.212,360.245 "/>
<polygon style="fill:#E0B996;" points="241.031,396.816 241.028,396.824 279.847,384.879 266.407,371.44 "/>
<g>
</g>
<g>
</g>
<g>
</g>
<g>
</g>
<g>
</g>
<g>
</g>
<g>
</g>
<g>
</g>
<g>
</g>
<g>
</g>
<g>
</g>
<g>
</g>
<g>
</g>
<g>
</g>
<g>
</g>
</svg>
