<?xml version="1.0" encoding="iso-8859-1"?>
<!-- Generator: Adobe Illustrator 19.0.0, SVG Export Plug-In . SVG Version: 6.00 Build 0)  -->
<svg version="1.1" id="Capa_1" xmlns="http://www.w3.org/2000/svg" xmlns:xlink="http://www.w3.org/1999/xlink" x="0px" y="0px"
	 viewBox="0 0 480 480" style="enable-background:new 0 0 480 480;" xml:space="preserve">
<path style="fill:#406AF2;" d="M136,72c0-35.344-28.656-64-64-64S8,36.656,8,72s28.656,64,64,64S136,107.344,136,72z M48,72h16V56
	c0-8.84,7.16-16,16-16h8h-8c-8.84,0-16,7.16-16,16v16h16H64v40V72H48z"/>
<path style="fill:#B139D8;" d="M304,72c0-35.344-28.656-64-64-64s-64,28.656-64,64s28.656,64,64,64S304,107.344,304,72z M216,48
	l56,24l-56,24V48z"/>
<path style="fill:#4BDDDD;" d="M408,8c-35.344,0-64,28.656-64,64s28.656,64,64,64s64-28.656,64-64S443.344,8,408,8z M408,104h16H408
	c-8.84,0-16-7.16-16-16V64V40v24h32h-32v24C392,96.84,399.16,104,408,104z"/>
<g>
	<polygon style="fill:#FFC931;" points="216,48 216,96 272,72 	"/>
	<path style="fill:#FFC931;" d="M316.816,317.128l19.352-19.352l-33.944-33.944l-19.352,19.352
		c-5.904-3.304-12.232-5.904-18.872-7.784V248h-48v27.4c-6.64,1.88-12.968,4.48-18.872,7.784l-19.352-19.352l-33.944,33.944
		l19.352,19.352c-3.304,5.904-5.904,12.232-7.784,18.872H128v48h27.4c1.88,6.64,4.48,12.968,7.784,18.872l-19.352,19.352
		l33.944,33.944l19.352-19.352c5.904,3.304,12.232,5.904,18.872,7.784V472h48v-27.4c6.64-1.88,12.968-4.48,18.872-7.784
		l19.352,19.352l33.944-33.944l-19.352-19.352c3.304-5.904,5.904-12.232,7.784-18.872H352v-48h-27.4
		C322.72,329.36,320.12,323.032,316.816,317.128z M240,408c-26.512,0-48-21.488-48-48s21.488-48,48-48s48,21.488,48,48
		S266.512,408,240,408z"/>
</g>
<path style="fill:#E6B52C;" d="M316.816,317.128l19.352-19.352l-33.944-33.944l-19.352,19.352
	c-5.904-3.304-12.232-5.904-18.872-7.784V248h-24v64c26.512,0,48,21.488,48,48s-21.488,48-48,48v64h24v-27.4
	c6.64-1.88,12.968-4.48,18.872-7.784l19.352,19.352l33.944-33.944l-19.352-19.352c3.304-5.904,5.904-12.232,7.784-18.872H352v-48
	h-27.4C322.72,329.36,320.12,323.032,316.816,317.128z"/>
<g>
	<path style="fill:#2A0E54;" d="M144,72c0-39.704-32.304-72-72-72S0,32.296,0,72s32.304,72,72,72S144,111.704,144,72z M16,72
		c0-30.872,25.12-56,56-56s56,25.128,56,56s-25.12,56-56,56S16,102.872,16,72z"/>
	<path style="fill:#2A0E54;" d="M312,72c0-39.704-32.304-72-72-72s-72,32.296-72,72s32.304,72,72,72S312,111.704,312,72z M240,128
		c-30.88,0-56-25.128-56-56s25.12-56,56-56s56,25.128,56,56S270.88,128,240,128z"/>
	<path style="fill:#2A0E54;" d="M408,0c-39.696,0-72,32.296-72,72s32.304,72,72,72s72-32.296,72-72S447.696,0,408,0z M408,128
		c-30.88,0-56-25.128-56-56s25.12-56,56-56s56,25.128,56,56S438.88,128,408,128z"/>
	<path style="fill:#2A0E54;" d="M72,112V80h8V64h-8v-8c0-4.416,3.592-8,8-8h8V32h-8c-13.232,0-24,10.768-24,24v8h-8v16h8v32H72z"/>
	<path style="fill:#2A0E54;" d="M275.152,64.648l-56-24c-2.472-1.064-5.304-0.816-7.552,0.672c-2.248,1.488-3.6,3.992-3.6,6.68v48
		c0,2.688,1.352,5.192,3.6,6.68c1.32,0.872,2.856,1.32,4.4,1.32c1.064,0,2.144-0.208,3.152-0.648l56-24
		C278.096,78.096,280,75.2,280,72S278.096,65.904,275.152,64.648z M224,83.864V60.136L251.688,72L224,83.864z"/>
	<path style="fill:#2A0E54;" d="M400,40h-16v48c0,13.232,10.768,24,24,24h16V96h-16c-4.408,0-8-3.584-8-8V72h24V56h-24V40z"/>
	<path style="fill:#2A0E54;" d="M352,328h-21.544c-1.128-3.2-2.416-6.32-3.848-9.344l15.224-15.224
		c1.504-1.504,2.344-3.528,2.344-5.656s-0.84-4.16-2.344-5.656l-33.944-33.936c-3.128-3.128-8.184-3.128-11.312,0L281.352,273.4
		c-3.024-1.44-6.144-2.728-9.344-3.848V248c0-4.424-3.584-8-8-8h-48c-4.416,0-8,3.576-8,8v21.544
		c-3.2,1.128-6.328,2.416-9.344,3.848l-15.224-15.216c-3.128-3.128-8.184-3.128-11.312,0l-33.944,33.936
		c-1.504,1.504-2.344,3.528-2.344,5.656s0.84,4.16,2.344,5.656l15.224,15.224c-1.448,3.032-2.736,6.152-3.864,9.352H128
		c-4.416,0-8,3.576-8,8v48c0,4.424,3.584,8,8,8h21.544c1.128,3.2,2.416,6.32,3.848,9.344l-15.224,15.224
		c-1.504,1.504-2.344,3.528-2.344,5.656s0.84,4.16,2.344,5.656l33.944,33.936c3.128,3.128,8.184,3.128,11.312,0l15.224-15.216
		c3.024,1.44,6.144,2.728,9.344,3.848V472c0,4.424,3.584,8,8,8h48c4.416,0,8-3.576,8-8v-21.544c3.2-1.128,6.328-2.416,9.344-3.848
		l15.224,15.216c3.128,3.128,8.184,3.128,11.312,0l33.944-33.936c1.504-1.504,2.344-3.528,2.344-5.656s-0.84-4.16-2.344-5.656
		l-15.224-15.224c1.44-3.024,2.728-6.144,3.848-9.344H352c4.416,0,8-3.576,8-8v-48C360,331.576,356.416,328,352,328z M344,376h-19.4
		c-3.576,0-6.72,2.376-7.696,5.824c-1.72,6.064-4.096,11.832-7.072,17.152c-1.744,3.128-1.2,7.032,1.328,9.56l13.696,13.696
		l-22.632,22.624l-13.696-13.696c-2.528-2.52-6.432-3.072-9.56-1.328c-5.32,2.976-11.088,5.36-17.152,7.08
		c-3.44,0.968-5.816,4.112-5.816,7.688V464h-32v-19.4c0-3.576-2.376-6.72-5.816-7.696c-6.064-1.72-11.832-4.104-17.152-7.08
		c-3.136-1.744-7.032-1.192-9.56,1.328l-13.696,13.696l-22.632-22.624l13.696-13.696c2.528-2.528,3.072-6.44,1.328-9.56
		c-2.976-5.32-5.352-11.088-7.072-17.152c-0.976-3.44-4.12-5.816-7.696-5.816H136v-32h19.4c3.576,0,6.72-2.376,7.696-5.824
		c1.72-6.064,4.096-11.832,7.072-17.152c1.744-3.128,1.2-7.032-1.328-9.56l-13.696-13.696l22.632-22.624l13.696,13.696
		c2.528,2.528,6.44,3.064,9.56,1.328c5.32-2.976,11.088-5.36,17.152-7.08c3.44-0.968,5.816-4.112,5.816-7.688V256h32v19.4
		c0,3.576,2.376,6.72,5.816,7.696c6.064,1.72,11.832,4.104,17.152,7.08c3.136,1.736,7.032,1.2,9.56-1.328l13.696-13.696
		l22.632,22.624l-13.696,13.696c-2.528,2.528-3.072,6.44-1.328,9.56c2.976,5.32,5.352,11.088,7.072,17.152
		c0.976,3.44,4.12,5.816,7.696,5.816H344V376z"/>
	<path style="fill:#2A0E54;" d="M240,304c-30.88,0-56,25.128-56,56s25.12,56,56,56s56-25.128,56-56S270.88,304,240,304z M240,400
		c-22.056,0-40-17.944-40-40s17.944-40,40-40s40,17.944,40,40S262.056,400,240,400z"/>
	<path style="fill:#2A0E54;" d="M64,160v40c0,2.128,0.84,4.16,2.344,5.656l64,64l11.312-11.312L80,196.688V160H64z"/>
	<path style="fill:#2A0E54;" d="M400,196.688l-61.656,61.656l11.312,11.312l64-64C415.16,204.16,416,202.128,416,200v-40h-16
		V196.688z"/>
	<rect x="232" y="160" style="fill:#2A0E54;" width="16" height="64"/>
	<rect x="464" y="352" style="fill:#2A0E54;" width="16" height="16"/>
	<rect x="432" y="352" style="fill:#2A0E54;" width="16" height="16"/>
	<rect x="432" y="384" style="fill:#2A0E54;" width="16" height="16"/>
	<rect x="432" y="320" style="fill:#2A0E54;" width="16" height="16"/>
	<rect x="400" y="352" style="fill:#2A0E54;" width="16" height="16"/>
	<rect x="464" y="384" style="fill:#2A0E54;" width="16" height="16"/>
	<rect x="464" y="416" style="fill:#2A0E54;" width="16" height="16"/>
	<rect x="464" y="320" style="fill:#2A0E54;" width="16" height="16"/>
	<rect x="464" y="288" style="fill:#2A0E54;" width="16" height="16"/>
	<rect y="352" style="fill:#2A0E54;" width="16" height="16"/>
	<rect x="32" y="352" style="fill:#2A0E54;" width="16" height="16"/>
	<rect x="32" y="320" style="fill:#2A0E54;" width="16" height="16"/>
	<rect x="32" y="384" style="fill:#2A0E54;" width="16" height="16"/>
	<rect x="64" y="352" style="fill:#2A0E54;" width="16" height="16"/>
	<rect y="320" style="fill:#2A0E54;" width="16" height="16"/>
	<rect y="288" style="fill:#2A0E54;" width="16" height="16"/>
	<rect y="384" style="fill:#2A0E54;" width="16" height="16"/>
	<rect y="416" style="fill:#2A0E54;" width="16" height="16"/>
</g>
<g>
</g>
<g>
</g>
<g>
</g>
<g>
</g>
<g>
</g>
<g>
</g>
<g>
</g>
<g>
</g>
<g>
</g>
<g>
</g>
<g>
</g>
<g>
</g>
<g>
</g>
<g>
</g>
<g>
</g>
</svg>
