<?xml version="1.0" encoding="iso-8859-1"?>
<!-- Generator: Adobe Illustrator 19.0.0, SVG Export Plug-In . SVG Version: 6.00 Build 0)  -->
<svg version="1.1" id="Capa_1" xmlns="http://www.w3.org/2000/svg" xmlns:xlink="http://www.w3.org/1999/xlink" x="0px" y="0px"
	 viewBox="0 0 468.293 468.293" style="enable-background:new 0 0 468.293 468.293;" xml:space="preserve">
<polygon style="fill:#3A556A;" points="388.047,112.552 370.834,112.552 370.834,72.741 97.457,72.741 97.457,112.552 
	80.243,112.552 80.243,55.528 388.047,55.528 "/>
<rect x="62.014" y="129.767" style="fill:#64798A;" width="344.289" height="315.567"/>
<path style="fill:#D5D6DB;" d="M432.098,129.766H36.195c-9.507,0-17.213-7.707-17.213-17.213v0c0-9.507,7.707-17.213,17.213-17.213
	h395.904c9.507,0,17.213,7.707,17.213,17.213v0C449.311,122.06,441.605,129.766,432.098,129.766z"/>
<path style="fill:#FCD462;" d="M394.297,74.591H73.996c-3.448,0-6.244-2.795-6.244-6.244V6.244C67.752,2.795,70.548,0,73.996,0
	h320.301c3.448,0,6.244,2.795,6.244,6.244v62.103C400.541,71.795,397.745,74.591,394.297,74.591z"/>
<g>
	<path style="fill:#E56353;" d="M120.781,61.703V13.577h8.125v20.861h23.892V13.577h8.125v48.126h-8.125v-19.69h-23.892v19.69
		H120.781z"/>
	<path style="fill:#E56353;" d="M214.557,55.058c-4.864,4.752-10.876,7.127-18.037,7.127s-13.173-2.376-18.037-7.127
		c-4.869-4.752-7.301-10.669-7.301-17.762s2.432-13.016,7.301-17.762c4.864-4.752,10.876-7.127,18.037-7.127
		s13.173,2.376,18.037,7.127c4.869,4.746,7.301,10.669,7.301,17.762S219.427,50.306,214.557,55.058z M208.607,24.934
		c-3.284-3.396-7.312-5.093-12.086-5.093c-4.774,0-8.803,1.698-12.086,5.093c-3.278,3.401-4.92,7.52-4.92,12.361
		s1.642,8.96,4.92,12.361c3.284,3.396,7.312,5.093,12.086,5.093c4.774,0,8.803-1.698,12.086-5.093
		c3.278-3.401,4.92-7.52,4.92-12.361S211.885,28.336,208.607,24.934z"/>
	<path style="fill:#E56353;" d="M248.984,21.012v40.691h-8.125V21.012h-14.596v-7.436h37.318v7.436H248.984z"/>
	<path style="fill:#E56353;" d="M306.199,13.577v7.643h-25.68v12.736h23.063v7.228h-23.063V54.06h26.509v7.643h-34.634V13.577
		H306.199z"/>
	<path style="fill:#E56353;" d="M317.422,61.703V13.577h8.125v40.416h21.965v7.71H317.422z"/>
</g>
<path style="fill:#3A556A;" d="M449.311,468.293H18.981l0,0c0-12.675,10.275-22.951,22.951-22.951H426.36
	C439.036,445.342,449.311,455.617,449.311,468.293L449.311,468.293z"/>
<rect x="96.78" y="159.344" style="fill:#44C4A1;" width="70.263" height="96.624"/>
<polygon style="fill:#3EA69B;" points="167.045,255.976 96.78,255.976 167.045,159.352 "/>
<rect x="198.993" y="159.344" style="fill:#44C4A1;" width="70.263" height="96.624"/>
<polygon style="fill:#3EA69B;" points="269.279,255.976 199.014,255.976 269.279,159.352 "/>
<rect x="301.25" y="159.344" style="fill:#44C4A1;" width="70.263" height="96.624"/>
<polygon style="fill:#3EA69B;" points="371.512,255.976 301.248,255.976 371.512,159.352 "/>
<path style="fill:#E1E6E9;" d="M318.439,337.486H149.854c-5.173,0-9.366-4.193-9.366-9.366v0c0-5.173,4.193-9.366,9.366-9.366
	h168.585c5.173,0,9.366,4.193,9.366,9.366v0C327.805,333.292,323.612,337.486,318.439,337.486z"/>
<rect x="159.22" y="337.483" style="fill:#27A2DB;" width="74.927" height="107.857"/>
<rect x="234.146" y="337.483" style="fill:#2D93BA;" width="74.927" height="107.857"/>
<g>
</g>
<g>
</g>
<g>
</g>
<g>
</g>
<g>
</g>
<g>
</g>
<g>
</g>
<g>
</g>
<g>
</g>
<g>
</g>
<g>
</g>
<g>
</g>
<g>
</g>
<g>
</g>
<g>
</g>
</svg>
