<?xml version="1.0" encoding="iso-8859-1"?>
<!-- Generator: Adobe Illustrator 19.0.0, SVG Export Plug-In . SVG Version: 6.00 Build 0)  -->
<svg version="1.1" id="Capa_1" xmlns="http://www.w3.org/2000/svg" xmlns:xlink="http://www.w3.org/1999/xlink" x="0px" y="0px"
	 viewBox="0 0 512 512" style="enable-background:new 0 0 512 512;" xml:space="preserve">
<path style="fill:#D2FAE6;" d="M512,256c0,141.385-114.615,256-256,256S0,397.385,0,256S114.615,0,256,0S512,114.615,512,256z"/>
<path style="fill:#1E9682;" d="M393,150h96.084c2.971,6.523,5.668,13.197,8.094,20H412v70h-19V150z"/>
<path style="fill:#5AC3A5;" d="M388,170v-18.95c0-5.916,5.108-10.539,10.995-9.95c29.262,2.926,58.632,4.4,88.003,4.433
	c5.305,11.073,9.841,22.583,13.53,34.468H398C392.477,180,388,175.523,388,170z M510.241,226H295v282.91
	c5.323-0.833,10.381-1.791,14.988-2.663c2.04-0.386,4.156-1.004,6.003-1.333C428.431,477.911,512,376.723,512,256
	C512,245.849,511.39,235.842,510.241,226z"/>
<path style="fill:#FFF5AF;" d="M317,341.214c-26.61,0-48.182-16.949-48.182-37.857S290.39,265.5,317,265.5
	s48.182,16.949,48.182,37.857C365.182,324.265,343.61,341.214,317,341.214z M445.388,367.038l-42.427-42.426
	c-1.953-1.953-5.118-1.953-7.071,0l-42.426,42.426c-1.953,1.953-1.953,5.118,0,7.071l42.426,42.426c1.953,1.953,5.118,1.953,7.071,0
	l42.427-42.426C447.341,372.156,447.341,368.991,445.388,367.038z"/>
<path style="fill:#D72D73;" d="M317,279.223c18.753,0,33.955,10.805,33.955,24.135S335.753,327.492,317,327.492
	s-33.955-10.805-33.955-24.135S298.247,279.223,317,279.223z"/>
<path style="fill:#1E9682;" d="M372.962,367.038l22.929-22.929c1.953-1.953,5.118-1.953,7.071,0l22.929,22.929
	c1.953,1.953,1.953,5.118,0,7.071l-22.929,22.929c-1.953,1.953-5.118,1.953-7.071,0l-22.929-22.929
	C371.009,372.157,371.009,368.991,372.962,367.038z"/>
<path style="fill:#FFF5AF;" d="M310,506.275c-17.411,3.739-35.472,5.725-54,5.725C114.615,512,0,397.385,0,256S114.615,0,256,0
	c18.528,0,36.589,1.986,54,5.725V506.275z"/>
<path style="fill:#FFF091;" d="M310,477.452v28.823c-17.411,3.739-35.472,5.725-54,5.725C114.615,512,0,397.385,0,256
	c0-79.286,36.048-150.147,92.643-197.105c-36.778,44.328-58.895,101.257-58.895,163.356c0,141.385,114.615,256,256,256
	C296.565,478.251,303.318,477.978,310,477.452z"/>
<path style="fill:#F2C230;" d="M120,512C52.156,502.294,0,443.957,0,373.428v-64.684L120,250l120,58.744v64.684
	C240,443.957,187.844,502.294,120,512z"/>
<path style="fill:#FFEB50;" d="M30,373.428V327.46l90-44.059l90,44.059v45.968c0,52.938-38.397,98.697-90,108.181
	C68.397,472.125,30,426.365,30,373.428z"/>
<path style="fill:#FFE67D;" d="M260,125v10c0,2.761-2.239,5-5,5H115c-2.761,0-5-2.239-5-5v-10c0-2.761,2.239-5,5-5h140
	C257.762,120,260,122.239,260,125z M255,160h-90c-2.761,0-5,2.239-5,5v10c0,2.761,2.239,5,5,5h90c2.761,0,5-2.239,5-5v-10
	C260,162.239,257.762,160,255,160z M255,200h-90c-2.761,0-5,2.239-5,5v10c0,2.761,2.239,5,5,5h90c2.761,0,5-2.239,5-5v-10
	C260,202.239,257.762,200,255,200z"/>
<path style="fill:#FF4682;" d="M260,50v10c0,2.761-2.239,5-5,5h-20v20c0,2.761-2.239,5-5,5h-10c-2.761,0-5-2.239-5-5V65h-20
	c-2.761,0-5-2.239-5-5V50c0-2.761,2.239-5,5-5h20V25c0-2.761,2.239-5,5-5h10c2.761,0,5,2.239,5,5v20h20
	C257.762,45,260,47.239,260,50z"/>
<path style="fill:#F7D139;" d="M120,283.401v198.208c-51.603-9.483-90-55.243-90-108.181V327.46L120,283.401z"/>
<path style="fill:#FF4682;" d="M161.457,409.767l-41.059,23.43c-0.152,0.086-0.319,0.104-0.473,0.07
	c-0.109-0.001-0.219-0.027-0.322-0.086l-41.059-23.43c-16.33-9.319-23.18-29.33-15.984-46.701l0,0
	c7.888-19.044,29.722-28.088,48.766-20.2l0,0c3.179,1.317,6.087,3.03,8.687,5.06c2.595-2.022,5.493-3.731,8.662-5.044l0,0
	c19.044-7.888,40.878,1.155,48.766,20.2l0,0C184.636,380.437,177.787,400.448,161.457,409.767z"/>
<g>
</g>
<g>
</g>
<g>
</g>
<g>
</g>
<g>
</g>
<g>
</g>
<g>
</g>
<g>
</g>
<g>
</g>
<g>
</g>
<g>
</g>
<g>
</g>
<g>
</g>
<g>
</g>
<g>
</g>
</svg>
