<?xml version="1.0"?>
<svg xmlns="http://www.w3.org/2000/svg" xmlns:xlink="http://www.w3.org/1999/xlink" version="1.1" id="Layer_1" x="0px" y="0px" viewBox="0 0 512 512" style="enable-background:new 0 0 512 512;" xml:space="preserve" width="512px" height="512px" class=""><g><g>
	<g>
		<path d="M64,0v473.6h166.4V512l25.6-12.8l25.6,12.8v-38.4h76.8L448,384V0H64z M314.76,417.926    c-5.62,9.713-18.966,12.565-28.678,18.185c-9.414,5.448-18.422,15.729-30.081,15.729c-11.66,0-20.667-10.281-30.081-15.729    c-9.713-5.619-23.059-8.471-28.678-18.185c-5.446-9.413-1.4-22.268-1.4-33.926c0-11.658-4.046-24.513,1.4-33.928    c5.619-9.713,18.964-12.565,28.677-18.185c9.416-5.446,18.423-15.727,30.083-15.727c11.659,0,20.667,10.281,30.081,15.729    c9.713,5.619,23.059,8.471,28.678,18.185c5.446,9.413,1.4,22.268,1.4,33.926C316.16,395.658,320.206,408.512,314.76,417.926z     M339.2,204.8l-64-10.83v33.87L288,243.2v25.6L256,256l-32,12.8v-25.6l12.8-15.36v-33.87l-64,10.83v-25.6l64-43.323V108.8    c0-10.604,8.596-19.2,19.2-19.2s19.2,8.596,19.2,19.2v27.077l64,43.323V204.8z M358.4,435.2V384h51.2L358.4,435.2z" data-original="#000000" class="active-path" data-old_color="#F8C72F" fill="#F7C426"/>
	</g>
</g><g>
	<g>
		<circle cx="256" cy="384" r="38.4" data-original="#000000" class="active-path" data-old_color="#F8C72F" fill="#F7C426"/>
	</g>
</g></g> </svg>
