<?xml version="1.0" encoding="iso-8859-1"?>
<!-- Generator: Adobe Illustrator 19.0.0, SVG Export Plug-In . SVG Version: 6.00 Build 0)  -->
<svg version="1.1" id="Capa_1" xmlns="http://www.w3.org/2000/svg" xmlns:xlink="http://www.w3.org/1999/xlink" x="0px" y="0px"
	 viewBox="0 0 512 512" style="enable-background:new 0 0 512 512;" xml:space="preserve">
<polygon style="fill:#AEADB3;" points="434.73,40.84 434.73,118.17 381.33,118.17 381.33,83 351.33,83 351.33,118.17 221.27,118.17 
	221.27,40.84 "/>
<polygon style="fill:#B8E0F8;" points="421.692,347.818 90.308,347.818 144.55,205.891 367.438,205.891 "/>
<polygon style="fill:#A3D9F6;" points="421.692,347.818 255.994,347.818 255.994,205.891 367.438,205.891 "/>
<polygon style="fill:#0088FF;" points="412.73,327.33 384.35,337.08 346.37,226.5 165.57,226.5 127.09,338.54 98.72,328.79 
	144.15,196.5 367.79,196.5 "/>
<path style="fill:#3C3A41;" d="M187.751,431.578v37.967c0,23.416-19.038,42.455-42.455,42.455h-3.399
	c-23.404,0-42.455-19.039-42.455-42.455v-37.967L187.751,431.578L187.751,431.578z"/>
<path style="fill:#171719;" d="M323.241,431.576v37.975c0,23.406,19.043,42.449,42.449,42.449h3.407
	c23.407,0,42.45-19.043,42.45-42.449v-37.975H323.241z"/>
<path style="fill:#0088FF;" d="M438.578,377.788v82.855H73.422v-82.855c0-36.757,29.897-66.653,66.641-66.653h231.862
	C408.682,311.135,438.578,341.032,438.578,377.788z"/>
<path style="fill:#005ED3;" d="M438.578,377.788v82.855H255.994V311.135h115.931C408.682,311.135,438.578,341.032,438.578,377.788z"
	/>
<rect x="214.94" y="416.55" style="fill:#3C3A41;" width="82.04" height="44.09"/>
<rect x="117.44" y="363.24" style="fill:#FFB74F;" width="37.07" height="37.07"/>
<rect x="357.98" y="363.24" style="fill:#FF9A00;" width="37.07" height="37.07"/>
<rect x="255.99" y="416.55" style="fill:#171719;" width="40.987" height="44.09"/>
<polygon style="fill:#005ED3;" points="412.73,327.33 384.35,337.08 346.37,226.5 255.99,226.5 255.99,196.5 367.79,196.5 "/>
<polygon style="fill:#78777F;" points="434.73,79.51 434.73,118.17 381.33,118.17 381.33,83 351.33,83 351.33,118.17 221.27,118.17 
	221.27,79.51 "/>
<path style="fill:#3C3A41;" d="M224.27,0h-120c-14.88,0-27,12.11-27,27v105.01c0,14.89,12.12,27,27,27h120c14.88,0,27-12.11,27-27
	V27C251.27,12.11,239.15,0,224.27,0z M154,106.5h-30v-56h30V106.5z"/>
<path style="fill:#171719;" d="M251.27,79.51v52.5c0,14.89-12.12,27-27,27h-120c-14.88,0-27-12.11-27-27v-52.5H124v26.99h30V79.51
	H251.27z"/>
<g>
</g>
<g>
</g>
<g>
</g>
<g>
</g>
<g>
</g>
<g>
</g>
<g>
</g>
<g>
</g>
<g>
</g>
<g>
</g>
<g>
</g>
<g>
</g>
<g>
</g>
<g>
</g>
<g>
</g>
</svg>
