<?xml version="1.0" encoding="iso-8859-1"?>
<!-- Generator: Adobe Illustrator 19.0.0, SVG Export Plug-In . SVG Version: 6.00 Build 0)  -->
<svg version="1.1" id="Capa_1" xmlns="http://www.w3.org/2000/svg" xmlns:xlink="http://www.w3.org/1999/xlink" x="0px" y="0px"
	 viewBox="0 0 512 512" style="enable-background:new 0 0 512 512;" xml:space="preserve">
<rect x="7.515" y="247.984" style="fill:#5589E9;" width="96.188" height="256.501"/>
<circle style="fill:#EEEBEA;" cx="55.609" cy="464.407" r="16.031"/>
<path style="fill:#FBD2A0;" d="M504.485,264.016c0-17.708-14.355-32.063-32.063-32.063h-72.141h-24.047H272.031
	c0,0,40.078-72.141,32.063-144.282s-64.125-48.094-64.125-48.094c0,112.219-136.266,240.47-136.266,240.47v184.36l72.141,24.047
	h200.391h24.047h24.047c17.708,0,32.063-14.355,32.063-32.063s-14.355-32.063-32.063-32.063h16.031
	c17.708,0,32.063-14.355,32.063-32.063s-14.355-32.063-32.063-32.063h16.031c17.708,0,32.063-14.355,32.063-32.063
	s-14.355-32.063-32.063-32.063h16.031C490.13,296.078,504.485,281.723,504.485,264.016z"/>
<g>
	<path style="fill:#F9BB70;" d="M472.423,272.031h-48.094c-4.427,0-8.016,3.589-8.016,8.016v8.016c0,4.427,3.589,8.016,8.016,8.016
		h47.428c17.927,0,33.018-14.67,32.724-32.595c-0.067-4.06-0.894-7.932-2.336-11.491
		C497.388,263.74,485.877,272.031,472.423,272.031z"/>
	<path style="fill:#F9BB70;" d="M456.391,336.157h-32.063c-4.427,0-8.016,3.589-8.016,8.016v8.016c0,4.427,3.589,8.016,8.016,8.016
		h31.396c17.927,0,33.018-14.67,32.724-32.595c-0.067-4.06-0.894-7.932-2.336-11.491
		C481.357,327.865,469.846,336.157,456.391,336.157z"/>
	<path style="fill:#F9BB70;" d="M440.36,400.282h-16.031c-4.427,0-8.016,3.589-8.016,8.016v8.016c0,4.427,3.589,8.016,8.016,8.016
		h15.365c17.927,0,33.018-14.67,32.724-32.595c-0.067-4.06-0.894-7.932-2.336-11.491
		C465.326,391.991,453.814,400.282,440.36,400.282z"/>
	<path style="fill:#F9BB70;" d="M454.052,444.368c-4.757,11.748-16.269,20.039-29.723,20.039H175.843l-72.141-24.047v24.047
		l67.205,22.402c3.269,1.09,6.693,1.645,10.139,1.645h242.616c17.927,0,33.018-14.67,32.724-32.595
		C456.32,451.799,455.493,447.927,454.052,444.368z"/>
	<path style="fill:#F9BB70;" d="M264.016,39.577c0,0,2.999-1.284,7.703-2.368c-16.002-4.379-31.75,2.368-31.75,2.368
		c0,112.219-136.266,240.47-136.266,240.47v27.439C147.165,271.589,264.016,163.552,264.016,39.577z"/>
</g>
<g>
	<path style="fill:#F17690;" d="M320.125,47.593c17.708,0,32.063-22.371,32.063-40.078c0,17.708,14.355,40.078,32.063,40.078
		c-17.708,0-32.063,22.371-32.063,40.078C352.188,69.964,337.833,47.593,320.125,47.593z"/>
	<path style="fill:#F17690;" d="M71.64,135.765c17.708,0,32.063-22.371,32.063-40.078c0,17.708,14.355,40.078,32.063,40.078
		c-17.708,0-32.063,22.371-32.063,40.078C103.703,158.136,89.348,135.765,71.64,135.765z"/>
	<path style="fill:#F17690;" d="M440.36,159.812c17.708,0,32.063-22.371,32.063-40.078c0,17.708,14.355,40.078,32.063,40.078
		c-17.708,0-32.063,22.371-32.063,40.078C472.423,182.183,458.068,159.812,440.36,159.812z"/>
</g>
<path d="M55.609,440.861c-12.983,0-23.546,10.563-23.546,23.546s10.563,23.546,23.546,23.546s23.546-10.563,23.546-23.546
	S68.592,440.861,55.609,440.861z M55.609,472.924c-4.696,0-8.517-3.82-8.517-8.517c0-4.696,3.82-8.517,8.517-8.517
	s8.517,3.82,8.517,8.517C64.125,469.103,60.305,472.924,55.609,472.924z"/>
<path d="M472.423,224.438H357.198c-4.15,0-7.515,3.365-7.515,7.515s3.365,7.515,7.515,7.515h115.225
	c13.535,0,24.548,11.012,24.548,24.548c0,13.535-11.013,24.548-24.548,24.548h-56.11c-4.15,0-7.515,3.365-7.515,7.515
	s3.365,7.515,7.515,7.515h40.078c13.535,0,24.548,11.013,24.548,24.548s-11.013,24.548-24.548,24.548h-40.078
	c-4.15,0-7.515,3.365-7.515,7.515s3.365,7.515,7.515,7.515h24.047c13.535,0,24.548,11.013,24.548,24.548
	s-11.013,24.548-24.548,24.548h-24.047c-4.15,0-7.515,3.365-7.515,7.515s3.365,7.515,7.515,7.515h8.016
	c13.535,0,24.548,11.013,24.548,24.548s-11.013,24.548-24.548,24.548H181.047c-2.643,0-5.255-0.424-7.763-1.259l-62.066-20.689
	V283.247c8.378-8.152,37.322-37.191,66.661-76.886c44.453-60.141,67.814-114.379,69.506-161.324
	c6.504-1.759,18.931-3.777,29.388,2.367c10.852,6.374,17.531,20.201,19.853,41.097c7.647,68.824-30.776,139.105-31.163,139.803
	c-2.702,4.914,0.932,11.164,6.569,11.164h49.096c4.15,0,7.515-3.365,7.515-7.515s-3.365-7.515-7.515-7.515h-36.905
	c11.031-23.422,33.74-80.013,27.341-137.597c-2.882-25.939-12.07-43.593-27.307-52.473c-21.455-12.502-46.203-2.145-47.246-1.698
	c-2.764,1.184-4.556,3.902-4.556,6.907c0,55.856-36.171,116.561-66.514,157.65c-20.817,28.189-41.825,51.25-54.723,64.648v-13.891
	c0-4.15-3.365-7.515-7.515-7.515H7.515c-4.15,0-7.515,3.365-7.515,7.515v256.501C0,508.635,3.365,512,7.515,512h96.188
	c4.15,0,7.515-3.365,7.515-7.515v-29.652l57.314,19.104c4.044,1.348,8.254,2.031,12.515,2.031h243.282
	c21.823,0,39.577-17.755,39.577-39.577c0-10.319-3.974-19.726-10.467-26.778c15.414-5.415,26.499-20.106,26.499-37.347
	c0-10.319-3.974-19.726-10.467-26.778c15.414-5.415,26.499-20.106,26.499-37.347c0-10.319-3.974-19.726-10.467-26.778
	C500.915,295.948,512,281.256,512,264.016C512,242.193,494.245,224.438,472.423,224.438z M96.188,496.971H15.029V255.499h81.159
	V496.971z"/>
<path d="M320.125,55.108c12.644,0,24.548,18.345,24.548,32.564c0,4.15,3.365,7.515,7.515,7.515s7.515-3.365,7.515-7.515
	c0-14.219,11.904-32.564,24.548-32.564c4.15,0,7.515-3.365,7.515-7.515s-3.365-7.515-7.515-7.515
	c-12.644,0-24.548-18.345-24.548-32.564c0-4.15-3.365-7.515-7.515-7.515s-7.515,3.365-7.515,7.515
	c0,14.219-11.904,32.564-24.548,32.564c-4.15,0-7.515,3.365-7.515,7.515S315.975,55.108,320.125,55.108z M352.188,33.78
	c3.144,5.352,7.159,10.139,11.811,13.813c-4.653,3.674-8.667,8.461-11.811,13.813c-3.144-5.352-7.159-10.139-11.811-13.813
	C345.029,43.919,349.044,39.132,352.188,33.78z"/>
<path d="M71.64,143.28c12.644,0,24.548,18.345,24.548,32.564c0,4.15,3.365,7.515,7.515,7.515c4.15,0,7.515-3.365,7.515-7.515
	c0-14.219,11.904-32.564,24.548-32.564c4.15,0,7.515-3.365,7.515-7.515s-3.365-7.515-7.515-7.515
	c-12.644,0-24.548-18.345-24.548-32.564c0-4.15-3.365-7.515-7.515-7.515c-4.15,0-7.515,3.365-7.515,7.515
	c0,14.219-11.904,32.564-24.548,32.564c-4.15,0-7.515,3.365-7.515,7.515S67.49,143.28,71.64,143.28z M103.703,121.952
	c3.144,5.352,7.159,10.139,11.811,13.813c-4.653,3.674-8.667,8.461-11.811,13.813c-3.144-5.352-7.159-10.139-11.811-13.813
	C96.544,132.091,100.558,127.305,103.703,121.952z"/>
<path d="M440.36,167.327c12.644,0,24.548,18.345,24.548,32.564c0,4.15,3.365,7.515,7.515,7.515s7.515-3.365,7.515-7.515
	c0-14.219,11.904-32.564,24.548-32.564c4.15,0,7.515-3.365,7.515-7.515s-3.365-7.515-7.515-7.515
	c-12.644,0-24.548-18.345-24.548-32.564c0-4.15-3.365-7.515-7.515-7.515s-7.515,3.365-7.515,7.515
	c0,14.219-11.904,32.564-24.548,32.564c-4.15,0-7.515,3.365-7.515,7.515S436.21,167.327,440.36,167.327z M472.423,145.999
	c3.144,5.352,7.159,10.139,11.811,13.813c-4.653,3.674-8.667,8.461-11.811,13.813c-3.144-5.352-7.159-10.139-11.811-13.813
	C465.264,156.138,469.279,151.352,472.423,145.999z"/>
<g>
</g>
<g>
</g>
<g>
</g>
<g>
</g>
<g>
</g>
<g>
</g>
<g>
</g>
<g>
</g>
<g>
</g>
<g>
</g>
<g>
</g>
<g>
</g>
<g>
</g>
<g>
</g>
<g>
</g>
</svg>
