<?xml version="1.0" encoding="iso-8859-1"?>
<!-- Generator: Adobe Illustrator 19.0.0, SVG Export Plug-In . SVG Version: 6.00 Build 0)  -->
<svg version="1.1" id="Capa_1" xmlns="http://www.w3.org/2000/svg" xmlns:xlink="http://www.w3.org/1999/xlink" x="0px" y="0px"
	 viewBox="0 0 512 512" style="enable-background:new 0 0 512 512;" xml:space="preserve">
<path style="fill:#3C3A41;" d="M155.653,418.872v40.973c0,28.756-23.399,52.155-52.164,52.155s-52.164-23.399-52.164-52.155v-40.973
	H155.653z"/>
<path style="fill:#171719;" d="M442.118,418.872v40.973c0,28.756-23.399,52.155-52.164,52.155
	c-28.765,0-52.164-23.399-52.164-52.155v-40.973H442.118z"/>
<polygon style="fill:#B8E0F8;" points="427.082,285.778 66.361,285.778 118.534,149.255 374.909,149.255 "/>
<polygon style="fill:#A3D9F6;" points="427.082,285.778 246.721,285.778 246.721,149.255 374.909,149.255 "/>
<path style="fill:#0088FF;" d="M443.04,276.1l-54.53-142.68H108.36L54.37,274.67c-19.64,6.08-33.95,24.41-33.95,46.03v124.69h452.6
	V320.7C473.02,300.57,460.61,283.29,443.04,276.1z M87.66,271.61l41.35-108.19h237.11l41.35,108.19H87.66z"/>
<path style="fill:#005ED3;" d="M473.02,320.7v124.69h-226.3V271.61h160.75l-41.35-108.19h-119.4v-30h141.79l54.53,142.68
	C460.61,283.29,473.02,300.57,473.02,320.7z"/>
<rect x="193.52" y="379.71" style="fill:#3C3A41;" width="106.41" height="65.68"/>
<rect x="246.72" y="379.71" style="fill:#171719;" width="53.21" height="65.68"/>
<rect x="73.45" y="341.52" style="fill:#FFB74F;" width="51.27" height="51.27"/>
<rect x="368.73" y="341.52" style="fill:#FF9A00;" width="51.27" height="51.27"/>
<path style="fill:#AEADB3;" d="M470.91,56.01v22.72h-30V56.01c0-14.32-11.63-25.98-25.95-26.01h-0.06
	c-14.34,0-26.01,11.67-26.01,26.01v22.72h-30V56.01C358.89,25.13,384.02,0,414.9,0h0.06C445.82,0.03,470.91,25.15,470.91,56.01z"/>
<path style="fill:#78777F;" d="M470.91,56.01v22.72h-30V56.01c0-14.32-11.63-25.98-25.95-26.01V0
	C445.82,0.03,470.91,25.15,470.91,56.01z"/>
<rect x="337.3" y="74.44" style="fill:#FF0435;" width="154.28" height="137.89"/>
<rect x="414.96" y="74.44" style="fill:#C2001B;" width="76.62" height="137.89"/>
<rect x="399.96" y="119.79" style="fill:#FFFFFF;" width="30" height="43.63"/>
<rect x="414.96" y="119.79" style="fill:#D9D9DB;" width="15" height="43.63"/>
<g>
</g>
<g>
</g>
<g>
</g>
<g>
</g>
<g>
</g>
<g>
</g>
<g>
</g>
<g>
</g>
<g>
</g>
<g>
</g>
<g>
</g>
<g>
</g>
<g>
</g>
<g>
</g>
<g>
</g>
</svg>
