<?xml version="1.0" encoding="iso-8859-1"?>
<!-- Generator: Adobe Illustrator 19.0.0, SVG Export Plug-In . SVG Version: 6.00 Build 0)  -->
<svg version="1.1" id="Capa_1" xmlns="http://www.w3.org/2000/svg" xmlns:xlink="http://www.w3.org/1999/xlink" x="0px" y="0px"
	 viewBox="0 0 512 512" style="enable-background:new 0 0 512 512;" xml:space="preserve">
<polygon style="fill:#DBF4FF;" points="181.75,457.5 101.75,457.5 81.75,481 101.75,504.5 131.75,504.5 "/>
<rect x="7.5" y="457.5" style="fill:#FFFFFF;" width="94.25" height="47"/>
<polygon style="fill:#9DB55F;" points="306,427.5 226,427.5 206,466 226,504.5 256,504.5 "/>
<rect x="131.75" y="427.5" style="fill:#B9D171;" width="94.25" height="77"/>
<polygon style="fill:#2DADE3;" points="430.25,367.5 350.25,367.5 330.25,436 350.25,504.5 380.25,504.5 "/>
<rect x="256" y="367.5" style="fill:#49C9FF;" width="94.25" height="137"/>
<polygon style="fill:#FFA754;" points="504.5,337.5 474.5,337.5 454.5,421 474.5,504.5 504.5,504.5 "/>
<rect x="380.25" y="337.5" style="fill:#FFCB63;" width="94.25" height="167"/>
<polygon style="fill:#9DB55F;" points="225.995,187.5 225.995,267.5 185.995,277.5 205.995,187.5 "/>
<path style="fill:#85453D;" d="M193.865,97.5v60c16.57,0,30-13.43,30-30S210.435,97.5,193.865,97.5z"/>
<path style="fill:#A45E43;" d="M193.865,97.5c5.53,0,10,13.43,10,30s-4.47,30-10,30c-16.56,0-30-13.43-30-30
	S177.305,97.5,193.865,97.5z"/>
<polygon style="fill:#B9D171;" points="205.995,187.5 205.995,277.5 161.745,267.5 161.745,187.5 "/>
<path style="fill:#2DADE3;" d="M205.995,267.5l-12.13,40c17.75,0,32.13-14.38,32.13-32.13v-7.87H205.995z"/>
<path style="fill:#49C9FF;" d="M205.995,267.5v7.87c0,17.75-5.43,32.13-12.13,32.13c-17.74,0-32.12-14.38-32.12-32.13v-7.87H205.995
	z"/>
<polygon style="fill:#2DADE3;" points="350.25,127.5 350.25,207.5 310.25,217.5 330.25,127.5 "/>
<path style="fill:#FF8D7E;" d="M318.12,37.5v60c16.57,0,30-13.43,30-30S334.69,37.5,318.12,37.5z"/>
<path style="fill:#FFB4A9;" d="M318.12,37.5c5.53,0,10,13.43,10,30s-4.47,30-10,30c-16.56,0-30-13.43-30-30S301.56,37.5,318.12,37.5
	z"/>
<polygon style="fill:#49C9FF;" points="330.25,127.5 330.25,217.5 285.995,207.5 285.995,127.5 "/>
<path style="fill:#FFA754;" d="M330.25,207.5l-12.13,40c17.75,0,32.13-14.38,32.13-32.13v-7.87H330.25z"/>
<path style="fill:#FFCB63;" d="M330.25,207.5v7.87c0,17.75-5.43,32.13-12.13,32.13c-17.74,0-32.125-14.38-32.125-32.13v-7.87H330.25
	z"/>
<polygon style="fill:#DBF4FF;" points="101.75,217.5 101.75,292.5 61.75,307.5 81.75,217.5 "/>
<path style="fill:#FFB4A9;" d="M69.62,127.5v60c16.57,0,30-13.43,30-30S86.19,127.5,69.62,127.5z"/>
<path style="fill:#FFD9D4;" d="M69.62,127.5c5.53,0,10,13.43,10,30s-4.47,30-10,30c-16.56,0-30-13.43-30-30S53.06,127.5,69.62,127.5
	z"/>
<polygon style="fill:#FFFFFF;" points="81.75,217.5 81.75,307.5 37.5,292.5 37.5,217.5 "/>
<path style="fill:#9DB55F;" d="M81.75,292.5l-12.13,45c17.75,0,32.13-14.38,32.13-32.13V292.5H81.75z"/>
<path style="fill:#B9D171;" d="M81.75,292.5v12.87c0,17.75-5.43,32.13-12.13,32.13c-17.74,0-32.12-14.38-32.12-32.13V292.5H81.75z"
	/>
<polygon style="fill:#FFA754;" points="474.505,97.5 474.505,177.5 434.505,187.5 454.505,97.5 "/>
<path style="fill:#C27749;" d="M442.375,7.5v60c16.57,0,30-13.43,30-30S458.945,7.5,442.375,7.5z"/>
<path style="fill:#E18F4E;" d="M442.375,7.5c5.53,0,10,13.43,10,30s-4.47,30-10,30c-16.56,0-30-13.43-30-30S425.815,7.5,442.375,7.5
	z"/>
<polygon style="fill:#FFCB63;" points="454.505,97.5 454.505,187.5 410.255,177.5 410.255,97.5 "/>
<path style="fill:#084F6D;" d="M454.505,177.5l-12.13,40c17.75,0,32.13-14.38,32.13-32.13v-7.87H454.505z"/>
<path style="fill:#116F97;" d="M454.505,177.5v7.87c0,17.75-5.43,32.13-12.13,32.13c-17.74,0-32.12-14.38-32.12-32.13v-7.87H454.505
	z"/>
<path d="M69.625,195c20.678,0,37.5-16.822,37.5-37.5S90.303,120,69.625,120s-37.5,16.822-37.5,37.5S48.947,195,69.625,195z
	 M69.625,135c12.407,0,22.5,10.093,22.5,22.5S82.032,180,69.625,180s-22.5-10.093-22.5-22.5S57.218,135,69.625,135z"/>
<path d="M442.375,75c20.678,0,37.5-16.822,37.5-37.5S463.053,0,442.375,0s-37.5,16.822-37.5,37.5S421.697,75,442.375,75z
	 M442.375,15c12.407,0,22.5,10.093,22.5,22.5S454.782,60,442.375,60s-22.5-10.093-22.5-22.5S429.968,15,442.375,15z"/>
<path d="M504.5,225c4.142,0,7.5-3.358,7.5-7.5v-90c0-20.678-16.822-37.5-37.5-37.5h-64.25c-20.678,0-37.5,16.822-37.5,37.5v90
	c0,4.142,3.358,7.5,7.5,7.5s7.5-3.358,7.5-7.5v-90c0-9.778,6.271-18.114,15-21.21v79.085c0,0.061,0.004,0.122,0.005,0.183
	L402.75,330h-22.5c-4.142,0-7.5,3.358-7.5,7.5V360h-15V127.5c0-4.142-3.358-7.5-7.5-7.5H286c-20.678,0-37.5,16.822-37.5,37.5v90
	c0,4.142,3.358,7.5,7.5,7.5s7.5-3.358,7.5-7.5v-90c0-9.778,6.27-18.12,15-21.215V360H256c-4.142,0-7.5,3.358-7.5,7.5V420h-15V187.5
	c0-4.142-3.358-7.5-7.5-7.5h-64.25c-20.678,0-37.5,16.822-37.5,37.5v90c0,4.142,3.358,7.5,7.5,7.5s7.5-3.358,7.5-7.5v-90
	c0-9.778,6.27-18.12,15-21.215V420h-22.5c-4.142,0-7.5,3.358-7.5,7.5V450h-15V217.5c0-4.142-3.358-7.5-7.5-7.5H37.5
	C16.822,210,0,226.822,0,247.5v90c0,4.142,3.358,7.5,7.5,7.5s7.5-3.358,7.5-7.5v-90c0-9.778,6.27-18.12,15-21.215V450H7.5
	c-4.142,0-7.5,3.358-7.5,7.5v47c0,4.142,3.358,7.5,7.5,7.5h497c4.142,0,7.5-3.358,7.5-7.5v-167c0-4.142-3.358-7.5-7.5-7.5H482
	l0.005-152.5c0-0.033-0.004-0.066-0.005-0.099V106.29c8.729,3.096,15,11.432,15,21.21v90C497,221.642,500.358,225,504.5,225z
	 M417.75,170v-65H467v65H417.75z M467,185v0.375C467,198.953,455.953,210,442.375,210c-13.52,0-24.527-10.954-24.621-24.452V185H467
	z M293.5,215h49.25v0.375c0,13.578-11.047,24.625-24.625,24.625S293.5,228.953,293.5,215.375V215z M342.75,135v65H293.5v-65H342.75z
	 M293.5,246.385c6.768,5.386,15.324,8.615,24.625,8.615s17.857-3.229,24.625-8.615V360H293.5V246.385z M169.25,275h49.25v0.375
	c0,13.578-11.047,24.625-24.625,24.625s-24.625-11.047-24.625-24.625V275z M218.5,195v65h-49.25v-65H218.5z M169.25,306.385
	c6.768,5.386,15.324,8.615,24.625,8.615s17.857-3.229,24.625-8.615V420h-49.25V306.385z M139.25,435H248.5v62H139.25V435z M45,305
	h49.25v0.375C94.25,318.953,83.203,330,69.625,330S45,318.953,45,305.375V305z M94.25,225v65H45v-65H94.25z M45,336.385
	C51.768,341.771,60.324,345,69.625,345s17.857-3.229,24.625-8.615V450H45V336.385z M15,465h109.25v32H15V465z M497,497H387.75v-22.5
	c0-4.142-3.358-7.5-7.5-7.5s-7.5,3.358-7.5,7.5V497H263.5V375h109.25v69.5c0,4.142,3.358,7.5,7.5,7.5s7.5-3.358,7.5-7.5V345H497V497
	z M417.75,330l0.003-113.612c6.767,5.384,15.322,8.612,24.622,8.612c9.303,0,17.86-3.231,24.628-8.618L467,330H417.75z"/>
<path d="M318.125,105c20.678,0,37.5-16.822,37.5-37.5S338.803,30,318.125,30s-37.5,16.822-37.5,37.5S297.447,105,318.125,105z
	 M318.125,45c12.407,0,22.5,10.093,22.5,22.5S330.532,90,318.125,90s-22.5-10.093-22.5-22.5S305.718,45,318.125,45z"/>
<path d="M193.875,165c20.678,0,37.5-16.822,37.5-37.5S214.553,90,193.875,90s-37.5,16.822-37.5,37.5S173.197,165,193.875,165z
	 M193.875,105c12.407,0,22.5,10.093,22.5,22.5s-10.093,22.5-22.5,22.5s-22.5-10.093-22.5-22.5S181.468,105,193.875,105z"/>
<g>
</g>
<g>
</g>
<g>
</g>
<g>
</g>
<g>
</g>
<g>
</g>
<g>
</g>
<g>
</g>
<g>
</g>
<g>
</g>
<g>
</g>
<g>
</g>
<g>
</g>
<g>
</g>
<g>
</g>
</svg>
