<?xml version="1.0" encoding="UTF-8" standalone="no"?>
<!-- Generator: Adobe Illustrator 14.0.0, SVG Export Plug-In . SVG Version: 6.00 Build 43363)  -->
<svg
   xmlns:dc="http://purl.org/dc/elements/1.1/"
   xmlns:cc="http://web.resource.org/cc/"
   xmlns:rdf="http://www.w3.org/1999/02/22-rdf-syntax-ns#"
   xmlns:svg="http://www.w3.org/2000/svg"
   xmlns="http://www.w3.org/2000/svg"
   xmlns:xlink="http://www.w3.org/1999/xlink"
   xmlns:sodipodi="http://sodipodi.sourceforge.net/DTD/sodipodi-0.dtd"
   xmlns:inkscape="http://www.inkscape.org/namespaces/inkscape"
   version="1.0"
   id="Layer_1"
   x="0px"
   y="0px"
   width="489"
   height="491"
   viewBox="0 0 623.622 864.567"
   enable-background="new 0 0 623.622 864.567"
   xml:space="preserve"
   sodipodi:version="0.32"
   inkscape:version="0.45.1"><defs
   id="defs791">

			<linearGradient
   id="SVGID_23_"
   gradientUnits="userSpaceOnUse"
   x1="0"
   y1="864.60602"
   x2="1"
   y2="864.60602"
   gradientTransform="matrix(12481.074,4726.2307,-4726.2307,12481.074,4089924.6,-1.0804715e7)">
			<stop
   offset="0"
   style="stop-color:#A39161"
   id="stop242" />
			<stop
   offset="0.4944"
   style="stop-color:#A39161"
   id="stop244" />
			<stop
   offset="0.5539"
   style="stop-color:#A69566"
   id="stop246" />
			<stop
   offset="0.6258"
   style="stop-color:#AF9F75"
   id="stop248" />
			<stop
   offset="0.7038"
   style="stop-color:#BEB08D"
   id="stop250" />
			<stop
   offset="0.766"
   style="stop-color:#CDC1A6"
   id="stop252" />
			<stop
   offset="0.8933"
   style="stop-color:#D4C9B2"
   id="stop254" />
			<stop
   offset="0.9274"
   style="stop-color:#CEC2A8"
   id="stop256" />
			<stop
   offset="0.9848"
   style="stop-color:#BFB18E"
   id="stop258" />
			<stop
   offset="1"
   style="stop-color:#BAAB86"
   id="stop260" />
		</linearGradient>
		
			<linearGradient
   id="SVGID_20_"
   gradientUnits="userSpaceOnUse"
   x1="0"
   y1="864.60791"
   x2="1"
   y2="864.60791"
   gradientTransform="matrix(12481.511,4726.4808,-4726.4808,12481.511,4090843.6,-1.0807044e7)">
			<stop
   offset="0"
   style="stop-color:#A39161"
   id="stop211" />
			<stop
   offset="0.4944"
   style="stop-color:#A39161"
   id="stop213" />
			<stop
   offset="0.5539"
   style="stop-color:#A69566"
   id="stop215" />
			<stop
   offset="0.6258"
   style="stop-color:#AF9F75"
   id="stop217" />
			<stop
   offset="0.7038"
   style="stop-color:#BEB08D"
   id="stop219" />
			<stop
   offset="0.766"
   style="stop-color:#CDC1A6"
   id="stop221" />
			<stop
   offset="0.8933"
   style="stop-color:#D4C9B2"
   id="stop223" />
			<stop
   offset="0.9274"
   style="stop-color:#CEC2A8"
   id="stop225" />
			<stop
   offset="0.9848"
   style="stop-color:#BFB18E"
   id="stop227" />
			<stop
   offset="1"
   style="stop-color:#BAAB86"
   id="stop229" />
		</linearGradient>

			<linearGradient
   id="SVGID_17_"
   gradientUnits="userSpaceOnUse"
   x1="0"
   y1="864.58838"
   x2="1"
   y2="864.58838"
   gradientTransform="matrix(12481.261,4726.3558,-4726.3558,12481.261,4091446.4,-1.0808655e7)">
			<stop
   offset="0"
   style="stop-color:#A39161"
   id="stop180" />
			<stop
   offset="0.4944"
   style="stop-color:#A39161"
   id="stop182" />
			<stop
   offset="0.5539"
   style="stop-color:#A69566"
   id="stop184" />
			<stop
   offset="0.6258"
   style="stop-color:#AF9F75"
   id="stop186" />
			<stop
   offset="0.7038"
   style="stop-color:#BEB08D"
   id="stop188" />
			<stop
   offset="0.766"
   style="stop-color:#CDC1A6"
   id="stop190" />
			<stop
   offset="0.8933"
   style="stop-color:#D4C9B2"
   id="stop192" />
			<stop
   offset="0.9274"
   style="stop-color:#CEC2A8"
   id="stop194" />
			<stop
   offset="0.9848"
   style="stop-color:#BFB18E"
   id="stop196" />
			<stop
   offset="1"
   style="stop-color:#BAAB86"
   id="stop198" />
		</linearGradient>

			<radialGradient
   id="SVGID_14_"
   cx="0"
   cy="864.56689"
   r="1"
   gradientTransform="matrix(7967.7643,0,0,-7967.7643,1636.6011,6874636.5)"
   gradientUnits="userSpaceOnUse">
			<stop
   offset="0"
   style="stop-color:#E4E5E6"
   id="stop161" />
			<stop
   offset="0.2869"
   style="stop-color:#CED0D2"
   id="stop163" />
			<stop
   offset="0.7398"
   style="stop-color:#B2B4B6"
   id="stop165" />
			<stop
   offset="1"
   style="stop-color:#A7A9AC"
   id="stop167" />
		</radialGradient>

			<radialGradient
   id="SVGID_11_"
   cx="0"
   cy="864.56689"
   r="1"
   gradientTransform="matrix(7967.6392,0,0,-7967.6392,1636.2885,6874528.9)"
   gradientUnits="userSpaceOnUse">
			<stop
   offset="0"
   style="stop-color:#E4E5E6"
   id="stop142" />
			<stop
   offset="0.2869"
   style="stop-color:#CED0D2"
   id="stop144" />
			<stop
   offset="0.7398"
   style="stop-color:#B2B4B6"
   id="stop146" />
			<stop
   offset="1"
   style="stop-color:#A7A9AC"
   id="stop148" />
		</radialGradient>
		
	<radialGradient
   inkscape:collect="always"
   xlink:href="#SVGID_11_"
   id="radialGradient3654"
   gradientUnits="userSpaceOnUse"
   gradientTransform="matrix(7967.6392,0,0,-7967.6392,1636.2885,6874528.9)"
   cx="0"
   cy="864.56689"
   r="1" /><radialGradient
   inkscape:collect="always"
   xlink:href="#SVGID_14_"
   id="radialGradient3656"
   gradientUnits="userSpaceOnUse"
   gradientTransform="matrix(7967.7643,0,0,-7967.7643,1636.6011,6874636.5)"
   cx="0"
   cy="864.56689"
   r="1" /><linearGradient
   inkscape:collect="always"
   xlink:href="#SVGID_17_"
   id="linearGradient3658"
   gradientUnits="userSpaceOnUse"
   gradientTransform="matrix(12481.261,4726.3558,-4726.3558,12481.261,4091446.4,-1.0808655e7)"
   x1="0"
   y1="864.58838"
   x2="1"
   y2="864.58838" /><linearGradient
   inkscape:collect="always"
   xlink:href="#SVGID_20_"
   id="linearGradient3660"
   gradientUnits="userSpaceOnUse"
   gradientTransform="matrix(12481.511,4726.4808,-4726.4808,12481.511,4090843.6,-1.0807044e7)"
   x1="0"
   y1="864.60791"
   x2="1"
   y2="864.60791" /><linearGradient
   inkscape:collect="always"
   xlink:href="#SVGID_23_"
   id="linearGradient3662"
   gradientUnits="userSpaceOnUse"
   gradientTransform="matrix(12481.074,4726.2307,-4726.2307,12481.074,4089924.6,-1.0804715e7)"
   x1="0"
   y1="864.60602"
   x2="1"
   y2="864.60602" /><linearGradient
   inkscape:collect="always"
   xlink:href="#SVGID_23_"
   id="linearGradient3686"
   gradientUnits="userSpaceOnUse"
   gradientTransform="matrix(307.80803,116.5582,-116.55822,307.80797,101084.67,-266038.8)"
   x1="0"
   y1="864.60602"
   x2="1"
   y2="864.60602" /><linearGradient
   inkscape:collect="always"
   xlink:href="#SVGID_20_"
   id="linearGradient3689"
   gradientUnits="userSpaceOnUse"
   gradientTransform="matrix(307.81881,116.56437,-116.56439,307.81875,101107.34,-266096.23)"
   x1="0"
   y1="864.60791"
   x2="1"
   y2="864.60791" /><linearGradient
   inkscape:collect="always"
   xlink:href="#SVGID_17_"
   id="linearGradient3692"
   gradientUnits="userSpaceOnUse"
   gradientTransform="matrix(307.81265,116.56128,-116.56131,307.81258,101122.2,-266135.96)"
   x1="0"
   y1="864.58838"
   x2="1"
   y2="864.58838" /><radialGradient
   inkscape:collect="always"
   xlink:href="#SVGID_14_"
   id="radialGradient3695"
   gradientUnits="userSpaceOnUse"
   gradientTransform="matrix(196.50087,0,0,-196.50083,259.38221,169968.98)"
   cx="0"
   cy="864.56689"
   r="1" /><radialGradient
   inkscape:collect="always"
   xlink:href="#SVGID_11_"
   id="radialGradient3698"
   gradientUnits="userSpaceOnUse"
   gradientTransform="matrix(196.49778,0,0,-196.49774,259.3745,169966.33)"
   cx="0"
   cy="864.56689"
   r="1" /></defs>	
		
		<path
   style="fill:url(#radialGradient3698)"
   clip-path="none"
   d="M 192.56809,60.54515 C 149.55716,104.68188 148.03009,171.30288 148.03009,171.30288 C 148.03009,301.64649 279.36131,319.10398 279.36132,500.70906 C 279.36132,500.70907 409.17948,504.88349 410.7226,415.1189 L 410.7226,412.3213 C 408.46578,317.80717 136.63574,158.66512 192.61433,60.54515 L 192.56809,60.54515 z "
   id="rect150" /><path
   style="fill:url(#radialGradient3695)"
   clip-path="none"
   d="M 321.33524,5.2283332 C 229.70194,5.3532707 199.30698,53.281433 199.30698,53.281433 C 140.76647,156.82223 417.12238,321.13989 417.12238,408.33377 C 417.12238,438.29799 414.06852,459.05531 392.26233,471.96322 C 392.26234,471.96322 511.88167,417.23986 513.36887,346.05688 L 513.36887,343.16912 C 511.41221,232.08755 299.89323,148.28596 297.85164,63.536968 C 296.74128,18.367002 340.66176,5.8911238 340.66176,5.8911238 C 334.26756,5.4578868 328.13401,5.2414287 322.26084,5.2283332 L 321.33524,5.2283332 z "
   id="rect169" /><path
   style="fill:url(#linearGradient3692)"
   clip-path="none"
   d="M 720.49638,-6.181364e-006 C 690.77891,24.566678 642.58656,34.821942 573.91403,34.821942 C 505.14898,34.821967 378.90763,7.8493095 355.28169,8.1269048 C 308.02981,8.6975089 282.63,66.312871 322.89588,110.23366 C 322.89588,110.23366 343.14503,87.640525 362.48376,80.993802 C 389.33282,71.756238 420.49974,74.038729 459.2543,76.290294 C 499.70524,78.649804 548.46869,81.040141 609.33789,70.322095 C 683.4234,57.321681 708.37494,28.530006 720.57345,0.015407555 L 720.49638,-6.181364e-006 z "
   id="polygon200" /><path
   style="fill:url(#linearGradient3689)"
   clip-path="none"
   d="M 689.71514,46.927891 C 672.72049,58.925943 648.26143,69.042607 612.11313,75.380883 C 551.24395,86.083491 502.48122,83.708592 462.06114,81.333668 C 423.26031,79.082104 392.10885,76.784199 365.22895,86.037176 C 345.89022,92.668486 326.25839,113.74952 326.25839,113.74952 C 326.25839,113.74952 375.32994,165.02688 404.73898,185.18294 C 423.67675,124.34463 543.50228,148.24822 592.51225,130.77553 C 654.30672,108.7226 680.18447,71.602446 689.94635,47.004959 L 689.71514,46.927891 z "
   id="polygon231" /><path
   style="fill:url(#linearGradient3686)"
   clip-path="none"
   d="M 656.00374,99.854814 C 639.44092,118.73089 604.97361,131.82369 595.70519,134.80007 C 542.91696,151.74845 469.98802,138.85581 430.1231,162.17331 C 413.46774,171.93519 408.7481,188.7913 408.7481,188.7913 C 408.7481,188.79131 446.22275,218.9712 480.89056,258.51225 C 480.89056,249.21301 484.09813,234.31578 496.18871,222.24065 C 517.56308,200.82001 634.24378,185.98458 656.08081,99.885641 L 656.00374,99.854814 z "
   id="polygon262" /><polygon
   style="fill:#b4985a"
   id="polygon264"
   points="601.275,836.131 603.386,830.573 602.114,830.573 600.001,836.131 601.275,836.131 "
   clip-path="none"
   transform="matrix(15.42163,0,0,15.421627,-8562.8619,-12214.746)" /><polygon
   style="fill:#b4985a"
   id="polygon266"
   points="582.449,836.131 584.562,830.573 583.291,830.573 581.178,836.131 582.449,836.131 "
   clip-path="none"
   transform="matrix(15.42163,0,0,15.421627,-8562.8619,-12214.746)" /><polygon
   style="fill:#b4985a"
   id="polygon268"
   points="573.208,836.131 575.32,830.573 574.048,830.573 571.936,836.131 573.208,836.131 "
   clip-path="none"
   transform="matrix(15.42163,0,0,15.421627,-8562.8619,-12214.746)" /><path
   clip-path="none"
   d="M 690.74839,594.041 L 665.58029,660.89376 L 650.06613,660.89376 L 652.78033,653.70728 C 655.86466,645.47213 651.71624,638.77914 643.45025,638.77914 L 588.88852,638.77914 C 585.51118,638.77914 582.01047,639.90492 578.80277,641.78636 L 596.75355,594.02558 L 577.15266,594.02558 L 552.0154,660.87833 L 539.18461,660.87833 L 547.83614,637.88469 L 528.23525,637.88469 L 519.58372,660.87833 L 471.48365,660.87833 L 477.48267,644.94779 L 454.98251,644.94779 L 441.21099,681.48163 L 422.62793,681.46621 C 421.02408,686.97173 421.65636,691.59821 424.38599,695.33025 C 427.14647,699.04686 432.57488,700.41939 438.23462,700.41939 C 443.69387,700.41939 448.96807,699.29361 454.14974,695.54615 C 459.30056,691.82954 461.66007,686.9563 463.72657,681.48163 L 464.3897,679.75441 L 678.3494,679.75441 L 678.3494,679.1838 L 710.31844,594.041 L 690.74839,594.041 M 630.03343,662.05038 L 571.09196,662.05038 C 572.51075,658.34919 574.45388,655.32655 578.13964,655.32655 L 625.85417,655.32655 C 629.55536,655.32655 631.4368,658.34919 630.03343,662.05038"
   id="path278"
   style="fill:#b4985a" /><path
   clip-path="none"
   d="M 344.19352,662.83688 C 333.49091,665.30434 326.47406,675.35924 324.5001,681.48163 C 322.89625,686.98715 323.51311,691.61364 326.24274,695.34567 C 329.03406,699.04686 338.36414,702.56299 344.00846,702.56299 C 349.48314,702.56299 363.06959,702.56299 374.49702,695.57699 C 379.92543,692.24592 385.09168,686.98715 387.11191,681.51247 L 387.77504,679.75441 L 394.86899,660.89376 L 400.88343,644.94779 L 378.35243,644.94779 L 365.25946,679.75441 L 337.83981,679.75441 L 344.19352,662.83688"
   id="path280"
   style="fill:#b4985a" /><path
   clip-path="none"
   d="M 277.94219,594.041 L 258.3413,594.041 L 232.91104,660.90918 L 186.59988,660.90918 L 187.43265,658.75015 C 188.65096,655.38823 192.38299,652.67403 195.71406,652.67403 L 219.06241,652.67403 L 226.24889,633.73627 C 222.28553,633.73627 222.06963,635.83361 217.93663,635.83361 L 183.29965,635.83361 C 179.16665,635.83361 173.59945,639.1801 172.05728,643.26684 L 165.39514,660.89376 L 141.26029,660.89376 C 141.29113,652.05716 134.87573,645.76514 124.45071,645.76514 C 114.02569,645.76514 102.67537,652.05716 95.781901,660.89376 L 68.14634,660.89376 L 93.545765,594.02558 L 73.944873,594.02558 L 41.374391,679.75441 L 89.597828,679.75441 C 90.739028,687.17221 96.861416,692.26134 106.20692,692.26134 C 115.56785,692.26134 125.66902,687.18763 132.65502,679.75441 L 245.40256,679.75441 L 277.94219,594.041 M 122.04494,668.61999 C 120.57988,672.24407 116.36978,675.1896 112.56063,675.1896 C 108.78234,675.1896 106.85463,672.25949 108.28884,668.61999 C 109.73848,664.99591 113.93316,662.03496 117.72688,662.03496 C 121.5206,662.03496 123.44831,664.98049 122.04494,668.61999"
   id="path290"
   style="fill:#b4985a" /><path
   clip-path="none"
   d="M 25.628907,644.50057 L 18.38074,662.40507 L -13.372396,662.40507 L -15.161305,664.22483 L -11.552643,654.66342 L -11.475535,654.66342 L -1.6211136,628.6934 C -3.4717093,629.07894 -9.2239772,635.83361 -17.459128,635.83361 L -52.11153,635.83361 C -56.229105,635.83361 -61.796314,639.16468 -63.353899,643.26684 L -63.986185,644.91695 L -67.409787,654.0774 L -72.344709,667.23204 L -72.344709,667.24747 L -77.063728,679.75441 L -104.46796,679.75441 L -98.098831,662.82146 C -108.86313,665.2735 -115.86455,675.35924 -117.83852,681.46621 C -119.41152,686.97173 -118.81008,691.59821 -116.06503,695.33025 C -113.30456,699.04686 -103.95905,702.54757 -98.330155,702.54757 C -92.855477,702.54757 -79.284442,702.54757 -67.841593,695.54615 C -62.413179,692.21508 -57.231511,686.9563 -55.195856,681.48163 L -54.532726,679.75441 L -47.438776,660.87833 L -45.125532,654.66342 L -31.168957,654.66342 L -40.622416,679.75441 L -20.990681,679.75441 L -20.7902,679.1838 L 25.027463,679.1838 C 26.430831,679.1838 27.865043,678.752 29.314676,677.84212 C 30.764309,676.94767 31.735872,675.83731 32.275629,674.4031 L 43.502576,644.50057 L 25.628907,644.50057"
   id="path292"
   style="fill:#b4985a" /><path
   clip-path="none"
   d="M 29.345519,628.66255 C 28.605281,633.76711 32.121413,637.90011 37.210551,637.90011 C 42.31511,637.90011 47.034129,633.76711 47.789789,628.66255 C 48.545449,623.58884 45.013895,619.45584 39.924758,619.45584 C 34.804776,619.45584 30.101179,623.58884 29.345519,628.66255"
   id="path302"
   style="fill:#b4985a" /><path
   clip-path="none"
   d="M -95.276673,714.1909 C -95.955224,718.74028 -92.809212,722.37978 -88.290674,722.37978 C -83.741293,722.37978 -79.54661,718.74028 -78.868058,714.1909 C -78.204928,709.67236 -81.335519,705.98659 -85.869478,705.98659 C -90.403438,705.98659 -94.613543,709.67236 -95.276673,714.1909"
   id="path304"
   style="fill:#b4985a" /><path
   clip-path="none"
   d="M -116.77442,714.1909 C -117.43755,718.74028 -114.32239,722.37978 -109.78843,722.37978 C -105.25447,722.37978 -101.04436,718.74028 -100.36581,714.1909 C -99.687259,709.67236 -102.83327,705.98659 -107.38265,705.98659 C -111.88577,705.98659 -116.11129,709.67236 -116.77442,714.1909"
   id="path306"
   style="fill:#b4985a" /><path
   clip-path="none"
   d="M 509.82182,695.76205 C 509.15869,700.29601 512.27386,703.98178 516.80782,703.98178 C 521.3572,703.98178 525.56731,700.29601 526.23044,695.76205 C 526.89357,691.2281 523.76298,687.57317 519.22902,687.57317 C 514.69506,687.57317 510.50038,691.2281 509.82182,695.76205"
   id="path308"
   style="fill:#b4985a" /><path
   clip-path="none"
   d="M 488.32407,695.76205 C 487.67636,700.29601 490.82238,703.98178 495.32549,703.98178 C 499.87487,703.98178 504.06956,700.29601 504.74811,695.76205 C 505.42666,691.2281 502.29607,687.57317 497.76211,687.57317 C 493.21273,687.57317 488.9872,691.2281 488.32407,695.76205"
   id="path310"
   style="fill:#b4985a" /><path
   clip-path="none"
   d="M 350.14627,641.80178 C 349.40603,646.90634 352.92216,651.02391 358.0113,651.02391 C 363.08501,651.02391 367.83488,646.90634 368.57511,641.80178 C 369.33077,636.72807 365.7838,632.59507 360.7255,632.59507 C 355.60552,632.61049 350.8865,636.72807 350.14627,641.80178"
   id="path312"
   style="fill:#b4985a" /><path
   clip-path="none"
   d="M 185.07314,610.69636 C 179.96858,610.69636 175.24956,614.81393 174.50932,619.90307 C 174.40137,620.61247 174.37053,621.32186 174.43221,621.98499 L 174.43221,622.01583 C 174.43221,623.558 163.96093,624.09775 163.96093,624.09775 L 161.33925,631.53098 C 161.33925,631.53098 174.33968,630.32809 183.16086,629.06352 C 183.5464,629.03267 183.93194,628.98641 184.28664,628.9093 L 184.31748,628.9093 L 184.30206,628.9093 C 188.58927,627.99942 192.27504,624.32908 192.90733,619.90307 C 193.67841,614.79851 190.1777,610.69636 185.07314,610.69636 M 186.53819,619.9956 C 186.27603,621.73824 184.67218,623.14161 182.92953,623.14161 C 181.21773,623.14161 179.984,621.73824 180.24617,619.9956 C 180.49292,618.2838 182.12761,616.86501 183.85483,616.86501 C 185.58205,616.86501 186.80036,618.2838 186.53819,619.9956"
   id="path322"
   style="fill:#b4985a" /><path
   clip-path="none"
   d="M -116.74358,831.79623 L -108.80144,806.55102 C -100.18075,779.02342 -76.308068,773.79549 -44.971316,773.79549 C -13.634563,773.79549 6.9687343,779.02342 -1.6519569,806.55102 L -9.5940964,831.79623 C -18.230209,859.30841 -42.087471,864.56718 -73.455066,864.56718 C -104.79182,864.56718 -125.34885,859.30841 -116.74358,831.79623 M -40.576151,829.17455 L -34.268704,809.04933 C -30.120286,795.83299 -35.409905,794.50673 -51.463822,794.50673 C -67.517739,794.50673 -73.177477,795.83299 -77.803966,809.04933 L -84.126834,829.17455 C -87.812604,842.51426 -83.016477,843.82509 -66.947138,843.82509 C -50.893221,843.82509 -44.755413,842.51426 -40.576151,829.17455"
   id="path324"
   style="fill:#a7a9ac" /><polygon
   clip-path="none"
   points="556.918,848.069 554.917,848.069 556.733,842.275 559.907,842.275 560.196,845.914 560.266,845.914 562.77,842.275 566.023,842.275 564.205,848.069 562.204,848.069 563.797,843.626 563.727,843.626 560.431,848.069 558.699,848.069 558.171,843.626 558.112,843.626 556.918,848.069 "
   id="polygon334"
   style="fill:#a7a9ac"
   transform="matrix(15.42163,0,0,15.421627,-8562.8619,-12214.746)" /><path
   clip-path="none"
   d="M 189.90011,848.48243 L 179.35171,863.85779 L 147.24388,863.85779 L 210.00991,774.5203 L 256.92251,774.5203 L 264.09357,863.85779 L 232.6026,863.85779 L 231.41514,848.48243 L 189.90011,848.48243 z M 228.48503,792.36313 L 228.17659,792.36313 L 201.99067,831.08683 L 230.69032,831.08683 L 228.48503,792.36313 z "
   id="path336"
   style="fill:#a7a9ac" /><polygon
   clip-path="none"
   points="574.901,848.069 572.899,848.069 574.717,842.275 578.101,842.275 578.855,846.724 578.936,846.724 580.211,842.275 582.213,842.275 580.396,848.069 576.983,848.069 576.256,843.62 576.176,843.62 574.901,848.069 "
   id="polygon338"
   style="fill:#a7a9ac"
   transform="matrix(15.42163,0,0,15.421627,-8562.8619,-12214.746)" /><path
   clip-path="none"
   d="M 488.86383,848.48243 L 478.31543,863.85779 L 446.2076,863.85779 L 508.97363,774.5203 L 555.88623,774.5203 L 563.05729,863.85779 L 531.56632,863.85779 L 530.36343,848.48243 L 488.86383,848.48243 z M 527.44875,792.36313 L 527.14031,792.36313 L 500.93896,831.08683 L 529.66946,831.08683 L 527.44875,792.36313 z "
   id="path340"
   style="fill:#a7a9ac" /><polygon
   clip-path="none"
   points="594.263,848.069 592.26,848.069 594.078,842.275 596.082,842.275 594.263,848.069 "
   id="polygon350"
   style="fill:#a7a9ac"
   transform="matrix(15.42163,0,0,15.421627,-8562.8619,-12214.746)" /><path
   clip-path="none"
   d="M 648.04589,774.50488 L 707.63507,774.50488 C 734.22196,774.84416 745.92698,779.28559 738.9564,801.53899 C 734.29907,816.43629 731.56944,825.13408 708.42157,829.0666 L 708.11314,830.02274 C 720.66635,830.37744 727.15886,835.72874 723.982,845.84533 L 718.32226,863.85779 L 687.44816,863.85779 L 691.3961,851.32001 C 693.78645,844.65786 691.50405,840.1239 682.25107,840.1239 L 658.33212,840.1239 L 650.86805,863.84237 L 619.99395,863.84237 L 648.04589,774.50488 M 688.74357,819.41266 C 702.0216,819.41266 702.77726,815.60352 705.93869,805.48693 C 708.437,797.49853 706.54014,795.23155 696.34644,795.23155 L 672.42749,795.23155 L 664.84005,819.41266 L 688.74357,819.41266 z "
   id="path352"
   style="fill:#a7a9ac" />
</svg>